<svg width="33" height="24" viewBox="0 0 33 24" fill="none" xmlns="http://www.w3.org/2000/svg">
<path d="M0.104004 0.960938H8.11133C9.78646 0.960938 11.2244 1.21322 12.4253 1.71777C13.6261 2.22233 14.5495 2.96908 15.1953 3.95801C15.8411 4.94694 16.1641 6.16292 16.1641 7.60596C16.1641 8.74626 15.9622 9.73519 15.5586 10.5728C15.1549 11.4103 14.5848 12.1117 13.8481 12.6768C13.1216 13.2419 12.2638 13.6859 11.2749 14.0088L9.97314 14.6748H2.9043L2.87402 11.3901H8.15674C9.01449 11.3901 9.72591 11.2388 10.291 10.936C10.8561 10.6333 11.2799 10.2145 11.5625 9.67969C11.8551 9.14486 12.0015 8.53434 12.0015 7.84814C12.0015 7.11149 11.8602 6.47575 11.5776 5.94092C11.2951 5.396 10.8662 4.97721 10.291 4.68457C9.71582 4.39193 8.98926 4.24561 8.11133 4.24561H4.2666V23H0.104004V0.960938ZM12.5464 23L7.44531 13.1309L11.8501 13.1157L17.0117 22.7881V23H12.5464Z" fill="#212526"/>
<path d="M22.1514 18.5908C22.1514 17.2236 22.6185 16.0729 23.5527 15.1387C24.487 14.2044 25.7516 13.7373 27.3467 13.7373C28.9417 13.7373 30.2064 14.2044 31.1406 15.1387C32.0749 16.0729 32.542 17.2236 32.542 18.5908C32.542 19.9352 32.0749 21.0745 31.1406 22.0088C30.2064 22.9202 28.9417 23.376 27.3467 23.376C25.7516 23.376 24.487 22.9202 23.5527 22.0088C22.6185 21.0745 22.1514 19.9352 22.1514 18.5908Z" fill="#FEEB3F"/>
</svg>
